<?xml version="1.0" encoding="UTF-8" standalone="no"?>
<!-- Created with Inkscape (http://www.inkscape.org/) -->

<svg
   xmlns:dc="http://purl.org/dc/elements/1.1/"
   xmlns:cc="http://creativecommons.org/ns#"
   xmlns:rdf="http://www.w3.org/1999/02/22-rdf-syntax-ns#"
   xmlns:svg="http://www.w3.org/2000/svg"
   xmlns="http://www.w3.org/2000/svg"
   xmlns:sodipodi="http://sodipodi.sourceforge.net/DTD/sodipodi-0.dtd"
   xmlns:inkscape="http://www.inkscape.org/namespaces/inkscape"
   width="30"
   height="30"
   viewBox="0 0 7.9374998 7.9375002"
   version="1.1"
   id="svg8"
   inkscape:version="0.92.2 (unknown)"
   sodipodi:docname="instagram.svg">
  <defs
     id="defs2" />
  <sodipodi:namedview
     id="base"
     pagecolor="#ffffff"
     bordercolor="#666666"
     borderopacity="1.0"
     inkscape:pageopacity="0.0"
     inkscape:pageshadow="2"
     inkscape:zoom="7.9195959"
     inkscape:cx="-2.4171419"
     inkscape:cy="5.6040408"
     inkscape:document-units="mm"
     inkscape:current-layer="layer1"
     showgrid="false"
     units="px"
     inkscape:window-width="1600"
     inkscape:window-height="845"
     inkscape:window-x="0"
     inkscape:window-y="27"
     inkscape:window-maximized="1" />
  <metadata
     id="metadata5">
    <rdf:RDF>
      <cc:Work
         rdf:about="">
        <dc:format>image/svg+xml</dc:format>
        <dc:type
           rdf:resource="http://purl.org/dc/dcmitype/StillImage" />
        <dc:title></dc:title>
      </cc:Work>
    </rdf:RDF>
  </metadata>
  <g
     inkscape:label="Layer 1"
     inkscape:groupmode="layer"
     id="layer1"
     transform="translate(0,-289.06248)">
    <path
       style="fill:#828282;fill-opacity:1;stroke-width:0.99999994"
       d="m 2.0917225,296.96631 c -0.8576,-0.0998 -1.47434998,-0.48806 -1.78683998,-1.12497 -0.27465,-0.55975 -0.3049,-0.83843 -0.3049,-2.80827 0,-1.96984 0.0303,-2.24852 0.3049,-2.80827 0.32131,-0.65489 0.91799998,-1.02267 1.82828998,-1.12685 0.38682,-0.0443 3.28519,-0.0443 3.67201,0 0.655,0.075 1.11364,0.27082 1.47096,0.62815 0.35732,0.35732 0.55318,0.81595 0.62815,1.47098 0.0443,0.3868 0.0443,3.28518 0,3.67199 -0.10419,0.91028 -0.47195,1.50697 -1.12684,1.8283 -0.32152,0.15775 -0.55669,0.22325 -0.97227,0.27082 -0.35294,0.0404 -3.36315,0.039 -3.71346,-0.002 z m 3.62495,-0.72536 c 0.94116,-0.0965 1.3638,-0.51923 1.46038,-1.46039 0.0442,-0.4308 0.0442,-3.06418 0,-3.49498 -0.0965,-0.94116 -0.51922,-1.36381 -1.46038,-1.4604 -0.43081,-0.0442 -3.06418,-0.0442 -3.495,0 -0.94115,0.0966 -1.36378998,0.51924 -1.46037998,1.4604 -0.0442,0.4308 -0.0442,3.06418 0,3.49498 0.0187,0.18261 0.0637,0.41865 0.0999,0.52454 0.18852998,0.55108 0.62310998,0.86137 1.30739998,0.93349 0.38339,0.0404 3.15938,0.0423 3.54804,0.003 z m -2.17756,-1.20829 c -1.08232,-0.23245 -1.79775,-1.33113 -1.57137,-2.4131 0.22925,-1.09567 1.32476,-1.81602 2.41494,-1.58792 0.78016,0.16324 1.42469,0.80775 1.58792,1.58792 0.0968,0.463 0.0386,0.88205 -0.18612,1.33786 -0.40238,0.81624 -1.34639,1.26831 -2.24537,1.07524 z m 0.74565,-0.72737 c 0.38673,-0.1001 0.6895,-0.34431 0.86077,-0.69438 0.38872,-0.79451 -0.0859,-1.70995 -0.97169,-1.8747 -0.68713,-0.12778 -1.36656,0.36642 -1.50153,1.0922 -0.0923,0.49604 0.16476,1.05519 0.60668,1.31992 0.32683,0.19577 0.6568,0.24728 1.00577,0.15696 z m 1.54734,-2.98885 c -0.34357,-0.21583 -0.26267,-0.76013 0.12863,-0.8655 0.47599,-0.12817 0.8131,0.47061 0.45701,0.81175 -0.13376,0.12815 -0.42472,0.15485 -0.58564,0.0537 z"
       id="path837"
       inkscape:connector-curvature="0" />
  </g>
</svg>
