<?xml version="1.0" encoding="UTF-8" standalone="no"?>
<!-- Created with Inkscape (http://www.inkscape.org/) -->

<svg
   xmlns:dc="http://purl.org/dc/elements/1.1/"
   xmlns:cc="http://creativecommons.org/ns#"
   xmlns:rdf="http://www.w3.org/1999/02/22-rdf-syntax-ns#"
   xmlns:svg="http://www.w3.org/2000/svg"
   xmlns="http://www.w3.org/2000/svg"
   xmlns:sodipodi="http://sodipodi.sourceforge.net/DTD/sodipodi-0.dtd"
   xmlns:inkscape="http://www.inkscape.org/namespaces/inkscape"
   width="17.39562mm"
   height="17.44071mm"
   viewBox="0 0 17.39562 17.44071"
   version="1.1"
   id="svg8"
   inkscape:version="0.92.4 (unknown)"
   sodipodi:docname="whatsapp.svg">
  <defs
     id="defs2">
    <clipPath
       clipPathUnits="userSpaceOnUse"
       id="clipPath3360">
      <path
         d="M 0,841.89 H 595.28 V 0 H 0 Z"
         id="path3362"
         inkscape:connector-curvature="0" />
    </clipPath>
    <clipPath
       clipPathUnits="userSpaceOnUse"
       id="clipPath3392">
      <path
         d="M 0,841.89 H 595.28 V 0 H 0 Z"
         id="path3394"
         inkscape:connector-curvature="0" />
    </clipPath>
    <clipPath
       clipPathUnits="userSpaceOnUse"
       id="clipPath3404">
      <path
         d="M 0,841.89 H 595.28 V 0 H 0 Z"
         id="path3406"
         inkscape:connector-curvature="0" />
    </clipPath>
    <clipPath
       clipPathUnits="userSpaceOnUse"
       id="clipPath3440">
      <path
         d="M 0,841.89 H 595.28 V 0 H 0 Z"
         id="path3442"
         inkscape:connector-curvature="0" />
    </clipPath>
    <clipPath
       clipPathUnits="userSpaceOnUse"
       id="clipPath3452">
      <path
         d="M 0,841.89 H 595.28 V 0 H 0 Z"
         id="path3454"
         inkscape:connector-curvature="0" />
    </clipPath>
    <clipPath
       clipPathUnits="userSpaceOnUse"
       id="clipPath3468">
      <path
         d="M 0,841.89 H 595.28 V 0 H 0 Z"
         id="path3470"
         inkscape:connector-curvature="0" />
    </clipPath>
    <clipPath
       clipPathUnits="userSpaceOnUse"
       id="clipPath3452-5">
      <path
         d="M 0,841.89 H 595.28 V 0 H 0 Z"
         id="path3454-3"
         inkscape:connector-curvature="0" />
    </clipPath>
    <clipPath
       clipPathUnits="userSpaceOnUse"
       id="clipPath3468-5">
      <path
         d="M 0,841.89 H 595.28 V 0 H 0 Z"
         id="path3470-6"
         inkscape:connector-curvature="0" />
    </clipPath>
  </defs>
  <sodipodi:namedview
     id="base"
     pagecolor="#ffffff"
     bordercolor="#666666"
     borderopacity="1.0"
     inkscape:pageopacity="0.0"
     inkscape:pageshadow="2"
     inkscape:zoom="0.70710678"
     inkscape:cx="-48.896714"
     inkscape:cy="133.95372"
     inkscape:document-units="mm"
     inkscape:current-layer="layer1"
     showgrid="false"
     inkscape:snap-global="false"
     fit-margin-top="5"
     fit-margin-left="5"
     fit-margin-right="5"
     fit-margin-bottom="5"
     inkscape:window-width="1600"
     inkscape:window-height="845"
     inkscape:window-x="0"
     inkscape:window-y="27"
     inkscape:window-maximized="1" />
  <metadata
     id="metadata5">
    <rdf:RDF>
      <cc:Work
         rdf:about="">
        <dc:format>image/svg+xml</dc:format>
        <dc:type
           rdf:resource="http://purl.org/dc/dcmitype/StillImage" />
        <dc:title></dc:title>
      </cc:Work>
    </rdf:RDF>
  </metadata>
  <g
     inkscape:label="Layer 1"
     inkscape:groupmode="layer"
     id="layer1"
     transform="translate(10.671833,-125.22464)">
    <path
       style="fill:#000000;stroke-width:0.03626082"
       d=""
       id="path902"
       inkscape:connector-curvature="0" />
    <g
       id="g914"
       transform="matrix(0.26775805,0,0,0.26775805,33.204147,89.671036)"
       style="fill:#828282;fill-opacity:1">
      <path
         inkscape:connector-curvature="0"
         id="path908"
         d="m -128.08925,171.19013 c -0.37673,-0.0651 -1.13725,-0.27691 -1.54053,-0.42905 -0.3729,-0.14068 -0.44866,-0.16977 -0.59664,-0.22914 -0.44986,-0.18048 -0.80525,-0.33113 -0.83705,-0.35481 -0.0195,-0.0146 -0.077,-0.0363 -0.12754,-0.0484 -0.10091,-0.024 -0.63234,-0.3181 -0.99509,-0.55064 -1.26182,-0.8089 -2.54131,-2.03167 -3.59535,-3.43597 -0.13585,-0.181 -0.27767,-0.36917 -0.31516,-0.41815 -0.28461,-0.37192 -0.79149,-1.18619 -0.98158,-1.57683 -0.42942,-0.88254 -0.57331,-1.47525 -0.54678,-2.25225 0.0341,-0.99956 0.3591,-1.76828 1.03689,-2.45279 0.26075,-0.26334 0.42026,-0.35626 0.74157,-0.43201 0.25803,-0.0608 0.82694,-0.0691 1.06028,-0.0152 0.28785,0.0663 0.30183,0.0904 0.90716,1.56432 0.22929,0.55834 0.44158,1.07126 0.47175,1.13982 0.0301,0.0685 0.0778,0.17677 0.10573,0.24045 0.0874,0.19893 0.0995,0.44372 0.0287,0.58134 -0.0889,0.17274 -0.31675,0.46226 -0.65691,0.83452 -0.54995,0.60185 -0.53926,0.69013 0.20949,1.73106 0.35656,0.49568 0.57018,0.74774 0.97952,1.15583 0.40539,0.40411 0.64804,0.61117 1.13794,0.97097 0.61137,0.44902 1.82414,1.03981 2.13453,1.03981 0.0658,0 0.1965,-0.0262 0.29041,-0.0582 0.14436,-0.0492 0.20627,-0.1034 0.40079,-0.3509 0.23617,-0.30046 0.40989,-0.53631 0.63677,-0.8644 0.19043,-0.27544 0.30834,-0.34722 0.57034,-0.34722 0.13342,0 0.26327,0.0234 0.33838,0.0611 0.067,0.0336 0.34629,0.16407 0.62056,0.28992 0.85178,0.39082 2.02487,0.98123 2.10057,1.0572 0.0635,0.0636 0.0719,0.11667 0.07,0.43633 -0.003,0.54921 -0.15347,1.10995 -0.39443,1.47295 -0.13355,0.20121 -0.3335,0.39364 -0.58951,0.56738 -0.0845,0.0574 -0.16184,0.11505 -0.17181,0.12821 -0.0397,0.0524 -0.74405,0.38023 -0.96142,0.44746 -0.51409,0.15901 -0.997,0.18969 -1.53161,0.0973 z"
         style="opacity:1;fill:#828282;fill-opacity:1;stroke:none;stroke-width:0.7123884;stroke-miterlimit:4;stroke-dasharray:none;stroke-opacity:1;paint-order:markers stroke fill" />
      <path
         inkscape:connector-curvature="0"
         id="path910"
         d="m -145.18907,179.08389 c -0.034,-0.0887 0.4669,-1.73209 1.11316,-3.65207 l 1.17499,-3.49087 -0.43786,-0.86783 c -0.97649,-1.93539 -1.39255,-3.75281 -1.39275,-6.08371 -1.7e-4,-2.38384 0.41641,-4.12364 1.47885,-6.17601 2.00266,-3.86866 5.59704,-6.50287 9.86608,-7.23056 1.20575,-0.20552 3.94463,-0.15252 5.04008,0.0975 2.67164,0.60985 4.85191,1.81128 6.75979,3.72494 2.40904,2.41636 3.66712,5.12431 3.96632,8.53728 0.38041,4.33936 -1.41715,8.63495 -4.79563,11.46014 -4.08091,3.41258 -9.60999,4.16489 -14.43157,1.96362 -0.42219,-0.19275 -0.85829,-0.33118 -0.96911,-0.30763 -0.11083,0.0235 -1.69946,0.52512 -3.53028,1.1146 -1.83082,0.58948 -3.43034,1.07178 -3.5545,1.07178 -0.12413,0 -0.25354,-0.0725 -0.28757,-0.16122 z m 15.79214,-3.32366 c 7.13221,-1.20332 11.17237,-8.83494 8.10868,-15.31678 -0.58531,-1.23836 -1.14382,-2.0432 -2.10578,-3.03454 -3.64918,-3.76062 -9.55007,-4.36899 -13.87693,-1.43068 -0.81643,0.55441 -1.99321,1.67927 -2.6215,2.50579 -0.76099,1.0011 -1.54921,2.68337 -1.86794,3.98672 -0.2304,0.94209 -0.27038,1.31964 -0.26665,2.51867 0.008,2.41088 0.54314,4.1638 1.94584,6.36794 0.12788,0.20095 0.0849,0.39324 -0.44593,1.99476 -0.32308,0.9748 -0.56275,1.79706 -0.53257,1.82724 0.0302,0.0302 0.87651,-0.2052 1.88076,-0.52308 l 1.82587,-0.57794 1.08783,0.55964 c 2.2489,1.15698 4.49107,1.52335 6.86832,1.12226 z"
         style="opacity:1;fill:#828282;fill-opacity:1;stroke:none;stroke-width:2.01493859;stroke-miterlimit:4;stroke-dasharray:none;stroke-opacity:1;paint-order:markers stroke fill" />
    </g>
  </g>
</svg>
